<!DOCTYPE svg PUBLIC "-//W3C//DTD SVG 20010904//EN" "http://www.w3.org/TR/2001/REC-SVG-20010904/DTD/svg10.dtd">
<svg version="1.0" xmlns="http://www.w3.org/2000/svg" width="1200px" height="300px" viewBox="0 0 12000 3000" preserveAspectRatio="xMidYMid meet">
<g id="layer101" fill="#ffffff" stroke="none">
 <path d="M1084 2951 c-95 -23 -196 -110 -242 -209 -26 -56 -27 -62 -30 -292 -2 -150 0 -248 7 -271 15 -49 45 -86 92 -109 34 -18 59 -20 239 -20 l200 0 0 -204 0 -203 -69 -7 c-154 -14 -331 -94 -453 -204 -38 -34 -38 -34 -38 -133 0 -99 0 -99 -98 -99 -98 0 -98 0 -344 -247 -251 -252 -278 -287 -278 -355 1 -43 30 -107 66 -139 34 -31 147 -101 201 -125 189 -82 317 -113 499 -121 151 -7 283 11 425 56 86 28 86 28 93 -31 3 -32 12 -71 21 -87 20 -39 68 -78 113 -91 26 -8 327 -10 978 -8 940 3 940 3 981 30 25 16 49 44 62 71 21 44 21 44 19 1213 -3 1169 -3 1169 -30 1235 -72 180 -203 298 -383 344 -51 13 -191 15 -1030 14 -533 -1 -984 -4 -1001 -8z m1974 -375 c36 -19 78 -65 91 -99 8 -19 11 -350 11 -1043 l0 -1014 -720 0 c-720 0 -720 0 -720 53 0 52 0 52 545 597 l545 545 0 127 0 128 -133 0 -132 0 -250 -250 c-137 -137 -253 -250 -256 -250 -4 0 -24 16 -45 36 -63 59 -135 110 -204 147 -65 34 -65 34 -65 263 l0 229 480 5 c541 6 521 3 572 83 25 39 27 52 33 192 6 170 14 194 83 239 47 30 120 35 165 12z m-1515 -1326 c67 -21 164 -79 207 -124 24 -27 24 -27 -120 -172 -167 -168 -243 -227 -361 -283 -132 -64 -220 -83 -379 -84 -130 0 -213 12 -294 43 -30 11 -30 11 59 100 89 90 89 90 295 92 l205 3 3 197 c2 197 2 197 55 216 75 28 83 30 178 31 62 1 106 -5 152 -19z"/>
 <path d="M6438 2575 c-280 -53 -481 -237 -560 -511 -19 -68 -22 -103 -23 -249 0 -197 13 -260 78 -395 59 -121 177 -240 297 -298 137 -66 190 -77 380 -77 190 0 244 11 380 78 166 81 298 247 350 442 39 147 37 372 -4 515 -37 126 -124 263 -215 339 -69 58 -186 118 -277 142 -105 27 -300 34 -406 14z m315 -328 c118 -54 174 -151 198 -344 25 -201 -33 -408 -136 -487 -61 -47 -112 -61 -215 -61 -83 1 -101 4 -146 27 -140 73 -204 234 -191 483 9 182 55 289 154 359 88 62 230 72 336 23z"/>
 <path d="M8164 2576 c-128 -24 -220 -80 -278 -168 -66 -99 -69 -124 -74 -600 l-4 -428 -134 0 -134 0 0 -155 0 -155 135 0 135 0 0 -170 c0 -153 2 -171 18 -177 9 -4 100 -30 202 -58 l185 -52 5 226 5 226 238 3 237 2 0 155 0 155 -237 2 -238 3 -3 325 c-3 340 5 446 36 490 31 43 98 70 172 70 81 0 123 -11 182 -49 47 -30 47 -30 58 7 5 20 20 81 31 134 19 82 20 100 9 113 -21 25 -117 70 -190 89 -87 23 -266 29 -356 12z"/>
 <path d="M9525 2584 c-84 -12 -178 -40 -250 -75 -189 -91 -307 -236 -366 -454 -33 -120 -33 -354 0 -480 35 -136 91 -235 186 -331 65 -66 96 -89 165 -122 146 -70 182 -77 380 -77 165 1 180 2 254 28 142 50 260 140 336 259 77 119 110 247 110 432 0 210 69 186 -533 186 -520 0 -520 0 -513 41 10 62 52 143 100 192 96 100 310 126 448 56 41 -21 125 -103 134 -132 4 -13 11 -16 27 -11 30 9 301 115 306 120 13 12 -76 146 -128 192 -78 70 -188 127 -301 156 -63 16 -291 29 -355 20z m421 -951 c-2 -10 -12 -44 -20 -75 -21 -74 -68 -134 -136 -172 -52 -29 -61 -31 -160 -31 -91 0 -112 3 -154 24 -66 33 -113 82 -147 155 -59 127 -87 116 291 116 311 0 331 -1 326 -17z"/>
 <path d="M11120 2579 c-219 -35 -432 -145 -531 -272 -22 -29 -22 -29 96 -147 l117 -118 63 67 c74 78 169 133 270 156 139 33 292 14 356 -43 26 -23 31 -35 31 -75 1 -39 -4 -53 -28 -78 -33 -35 -73 -48 -283 -90 -85 -17 -191 -42 -235 -56 -223 -69 -331 -190 -344 -384 -13 -215 129 -390 383 -469 86 -27 310 -38 430 -22 171 23 314 87 416 186 86 85 89 74 -52 207 -124 117 -124 117 -152 78 -35 -48 -108 -101 -183 -135 -80 -36 -234 -45 -319 -19 -109 35 -148 114 -90 184 33 39 99 60 350 111 219 45 315 79 386 137 119 96 166 256 124 418 -62 238 -309 378 -658 374 -51 -1 -117 -5 -147 -10z"/>
 <path d="M3930 1535 l0 -985 235 0 c235 0 235 0 261 43 14 23 165 276 336 562 170 286 348 593 395 683 47 89 86 162 87 162 1 0 2 -325 2 -722 l-1 -723 188 -3 187 -2 -2 982 -3 983 -235 2 -235 3 -66 -113 c-36 -61 -192 -323 -346 -582 -154 -259 -315 -538 -359 -621 l-79 -152 3 734 3 734 -185 0 -186 0 0 -985z"/>
 </g>

</svg>