<!DOCTYPE svg PUBLIC "-//W3C//DTD SVG 20010904//EN" "http://www.w3.org/TR/2001/REC-SVG-20010904/DTD/svg10.dtd">
<svg version="1.0" xmlns="http://www.w3.org/2000/svg" width="512px" height="128px" viewBox="0 0 512 128" preserveAspectRatio="xMidYMid meet">
 <g id="layer101" fill="#ffffff" stroke="none">
  <path d="M39.7227 120.32 c-1.2373 -0.4693 -2.56 -1.0667 -2.9867 -1.3653 -2.0907 -1.5787 -4.096 -3.7973 -5.0773 -5.6747 l-1.152 -2.1333 0 -10.4533 c0 -10.2827 0 -10.496 0.9813 -11.8613 1.8347 -2.56 2.8587 -2.816 11.6053 -3.072 l7.8933 -0.2133 0 -7.424 0 -7.4667 -3.2427 -0.5547 c-5.9733 -0.9813 -12.288 -3.84 -16.256 -7.3813 l-2.0053 -1.7493 -0.128 -3.712 -0.128 -3.712 -3.6693 -0.2133 -3.712 -0.2133 -9.088 -8.9173 c-5.0347 -4.864 -9.5573 -9.6 -10.0693 -10.4533 -1.152 -1.8347 -1.3227 -4.992 -0.3413 -6.8267 1.024 -2.048 4.0533 -4.2667 8.96 -6.656 7.2533 -3.5413 11.0933 -4.48 18.9867 -4.7787 7.3813 -0.256 13.056 0.256 16.8533 1.5787 3.712 1.28 4.0533 1.1947 4.0533 -0.9813 0 -2.432 1.7493 -5.1627 4.096 -6.272 1.664 -0.8107 2.7733 -0.8533 38.4 -0.8533 41.3867 0 38.3573 -0.256 40.9173 3.3707 l1.28 1.8347 0 44.6293 c0 42.5387 -0.0427 44.8 -0.8107 47.0187 -1.152 3.4133 -3.0293 6.5707 -5.3333 8.9173 -2.6453 2.688 -4.864 4.0533 -8.7467 5.376 l-3.2 1.0667 -37.888 0 c-36.3093 -0.0427 -37.9733 -0.0853 -40.192 -0.8533z m78.4213 -14.8053 c0.5973 -0.4693 1.536 -1.4933 2.0907 -2.2613 l0.9387 -1.408 -0.0853 -39.0827 -0.128 -39.0827 -27.52 0 -27.52 0 -0.128 1.664 -0.128 1.7067 21.1627 21.1627 21.1627 21.1627 -0.128 4.864 -0.128 4.9067 -5.12 0.128 -5.12 0.0853 -9.6 -9.6 c-5.2907 -5.2907 -9.7707 -9.6 -9.9413 -9.6 -0.2133 0 -1.6213 1.0667 -3.1147 2.3467 -1.536 1.28 -4.224 3.1573 -5.9733 4.096 l-3.1573 1.7493 0 8.704 0 8.704 18.0907 0 c11.7333 0 18.56 0.1707 19.328 0.4693 1.792 0.64 3.9253 2.9013 4.3947 4.6507 0.2133 0.8107 0.4267 3.584 0.4267 6.1013 0 4.864 0.3413 6.1013 2.2187 7.8507 0.512 0.512 1.4507 1.152 2.048 1.3653 1.536 0.64 4.608 0.2987 5.9307 -0.6827z m-57.5147 -51.2 c2.8587 -1.3653 6.3573 -4.096 6.3573 -4.992 0 -0.7253 -11.3067 -11.776 -13.6533 -13.3547 -6.1867 -4.1813 -12.8 -6.2293 -20.0533 -6.272 -4.352 0 -10.752 1.0667 -11.7333 1.92 -0.256 0.256 0.896 1.7067 2.9867 3.7973 l3.4133 3.4133 7.9787 0 8.0213 0 0 7.2107 c0 6.016 0.128 7.3387 0.6827 7.8933 0.3413 0.384 0.768 0.6827 0.9387 0.6827 0.1707 0.0427 1.28 0.2987 2.432 0.64 1.408 0.4267 3.456 0.5973 6.016 0.4693 3.2853 -0.128 4.352 -0.3413 6.6133 -1.408z"/>
  <path d="M265.6 101.12 c-4.4373 -0.512 -8.1067 -1.536 -12.16 -3.5413 -2.9013 -1.408 -4.352 -2.4747 -7.296 -5.4187 -3.2 -3.2 -3.968 -4.2667 -5.8453 -8.1493 -3.328 -6.8693 -4.6933 -14.0373 -4.1813 -22.016 0.6827 -11.3493 4.0533 -19.4133 10.7947 -25.728 5.3333 -4.992 12.1173 -7.7227 20.6507 -8.32 17.1093 -1.2373 30.5493 7.1253 35.2853 21.9733 1.5787 4.9067 1.9627 7.7653 1.9627 14.5067 0.0427 12.7147 -2.7307 20.5227 -9.728 27.5627 -5.5893 5.5467 -11.392 8.2347 -19.8827 9.1307 -4.736 0.4693 -5.1627 0.4693 -9.6 0z m9.2587 -12.8427 c6.1867 -1.3227 10.1547 -5.1627 12.544 -12.16 1.024 -2.944 1.1947 -4.224 1.3653 -10.0693 0.128 -5.2907 0.0427 -7.3813 -0.5547 -10.0267 -2.2187 -10.112 -8.2347 -15.4453 -17.4933 -15.488 -8.9173 0 -14.976 4.9067 -17.536 14.1227 -0.64 2.1333 -0.768 4.3093 -0.768 9.984 0 7.8507 0.4693 10.7093 2.6027 14.848 3.584 7.0827 11.4347 10.5813 19.84 8.7893z"/>
  <path d="M473.6 101.0773 c-6.6987 -0.5547 -14.6773 -3.2853 -19.9253 -6.8267 -2.2613 -1.4933 -7.3813 -6.3147 -7.3813 -6.912 0 -0.5547 8.1067 -10.112 8.576 -10.112 0.1707 0 0.9813 0.768 1.7493 1.7493 3.1147 3.8827 9.8133 7.808 15.5733 9.1733 2.048 0.4693 4.3947 0.64 8.0213 0.512 4.6933 -0.128 5.3333 -0.256 7.68 -1.408 3.3707 -1.664 4.48 -3.328 4.48 -6.656 0 -2.0053 -0.2133 -2.688 -1.1093 -3.7973 -2.0053 -2.3467 -2.816 -2.6453 -14.9333 -5.3333 -13.0987 -2.944 -17.9627 -4.864 -22.016 -8.832 -7.2107 -7.04 -6.1867 -20.4373 2.176 -27.6907 2.688 -2.3467 8.96 -5.376 12.8427 -6.2293 4.3947 -0.9813 14.848 -0.9387 19.2853 0.0427 6.4853 1.408 12.0747 4.352 16.6827 8.704 3.8827 3.712 3.8827 3.2853 -0.5973 8.5333 -2.1333 2.5173 -4.096 4.6507 -4.3093 4.736 -0.2133 0.0853 -1.792 -1.1947 -3.456 -2.816 -4.864 -4.6933 -8.7467 -6.6133 -14.9333 -7.3813 -4.5227 -0.5547 -9.0027 0 -12.1173 1.536 -5.7173 2.7733 -5.8027 9.6427 -0.0853 12.544 1.6213 0.8533 4.0533 1.4933 16.768 4.48 10.112 2.3893 14.5493 4.4373 17.92 8.3627 3.2 3.7973 4.48 8.8747 3.712 14.7627 -1.4507 10.496 -10.3253 17.4933 -23.9787 18.9013 -4.6933 0.4693 -4.6933 0.4693 -10.624 -0.0427z"/>
  <path d="M160.2987 100.0107 c-0.1707 -0.1707 -0.2987 -16.2133 -0.2987 -35.6693 l0 -35.328 8.832 0.0853 8.832 0.128 12.5013 20.9067 c6.912 11.52 13.568 22.912 14.848 25.3867 1.28 2.4747 2.4747 4.6933 2.6453 4.992 0.1707 0.256 0.2987 -11.2213 0.2133 -25.5147 l-0.128 -26.0267 6.9547 0.128 6.9547 0.128 0 35.4133 0 35.4133 -8.7467 0.128 -8.7467 0.0853 -11.904 -19.9253 c-6.5707 -11.008 -13.2693 -22.4853 -14.9333 -25.6 -1.664 -3.1147 -3.1147 -5.6747 -3.2427 -5.6747 -0.128 0 -0.2133 11.4773 -0.2133 25.472 l0 25.5147 -6.656 0.128 c-3.6267 0.0427 -6.7413 -0.0427 -6.912 -0.1707z"/>
  <path d="M334.3787 100.0107 c-0.1707 -0.1707 -0.2987 -13.44 -0.2987 -29.4827 l0 -29.1413 -11.8187 -0.0853 -11.8613 -0.128 0 -5.9733 0 -5.9733 31.488 -0.128 31.4453 -0.0853 0 6.1867 0 6.1867 -11.7333 0 -11.7333 0 -0.0853 29.3547 -0.128 29.312 -7.5093 0.128 c-4.096 0.0427 -7.5947 -0.0427 -7.7653 -0.1707z"/>
  <path d="M384.64 99.7547 c-0.128 -0.2987 -0.1707 -16.2987 -0.128 -35.5413 l0.128 -34.9867 27.008 -0.128 27.008 -0.0853 -0.128 6.0587 -0.128 6.1013 -19.072 0.128 -19.1147 0.0853 0 8.5333 0 8.5333 15.0613 0.0853 15.0187 0.128 0 5.76 0 5.76 -15.0187 0.128 -15.0613 0.0853 0 8.7467 0 8.7467 19.968 0.0853 19.9253 0.128 0 5.9733 0 5.9733 -27.648 0.128 c-21.888 0.0853 -27.6907 0 -27.8187 -0.4267z"/>
</g>

</svg>